<svg width="32" height="32" viewBox="0 0 32 32" fill="none" xmlns="http://www.w3.org/2000/svg">
<path d="M15.9976 2.66663C11.9873 2.66663 9.38695 5.35861 6.31166 6.33983C5.06122 6.7388 4.436 6.93828 4.18298 7.21949C3.92995 7.5007 3.85586 7.91162 3.70767 8.73347C2.12195 17.528 5.58791 25.6586 13.8538 28.8233C14.7419 29.1633 15.1859 29.3333 16.002 29.3333C16.8181 29.3333 17.2621 29.1633 18.1502 28.8232C26.4155 25.6586 29.8782 17.5279 28.292 8.73346C28.1437 7.91148 28.0696 7.50049 27.8165 7.21927C27.5635 6.93806 26.9383 6.73869 25.6879 6.33994C22.6114 5.35882 20.0082 2.66663 15.9976 2.66663Z" stroke="#1C2330" stroke-width="1.5" stroke-linecap="round" stroke-linejoin="round"/>
<path d="M12 17.3333C12 17.3333 13.3333 17.3333 14.6667 20C14.6667 20 18.902 13.3333 22.6667 12" stroke="#1C2330" stroke-width="1.5" stroke-linecap="round" stroke-linejoin="round"/>
</svg>
