<svg width="32" height="32" viewBox="0 0 31 31" fill="none" xmlns="http://www.w3.org/2000/svg">
<path d="M18.0833 28.4167V10.3334C18.0833 6.67999 18.0833 4.8533 16.9484 3.71834C15.8134 2.58337 13.9867 2.58337 10.3333 2.58337C6.67994 2.58337 4.85325 2.58337 3.71829 3.71834C2.58333 4.8533 2.58333 6.67999 2.58333 10.3334V20.6667C2.58333 24.3201 2.58333 26.1468 3.71829 27.2817C4.85325 28.4167 6.67994 28.4167 10.3333 28.4167H18.0833Z" stroke="#1C2330" stroke-width="1.5" stroke-linecap="round"/>
<path d="M8.39584 14.2083H7.10417M13.5625 14.2083H12.2708M8.39584 9.04163H7.10417M8.39584 19.375H7.10417M13.5625 9.04163H12.2708M13.5625 19.375H12.2708" stroke="#1C2330" stroke-width="1.5" stroke-linecap="round"/>
<path d="M23.8958 19.3749H22.6042M23.8958 14.2083H22.6042" stroke="#1C2330" stroke-width="1.5" stroke-linecap="round"/>
<path d="M23.25 10.3334H18.0833V28.4167H23.25C25.6856 28.4167 26.9034 28.4167 27.66 27.6601C28.4167 26.9034 28.4167 25.6856 28.4167 23.25V15.5C28.4167 13.0645 28.4167 11.8467 27.66 11.09C26.9034 10.3334 25.6856 10.3334 23.25 10.3334Z" stroke="#1C2330" stroke-width="1.5" stroke-linecap="round"/>
</svg>
