<svg width="32" height="32" viewBox="0 0 32 32" fill="none" xmlns="http://www.w3.org/2000/svg">
<path d="M26 23.3333C26 25.1743 24.5076 26.6667 22.6667 26.6667C20.8257 26.6667 19.3333 25.1743 19.3333 23.3333C19.3333 21.4924 20.8257 20 22.6667 20C24.5076 20 26 21.4924 26 23.3333Z" stroke="#1C2330" stroke-width="1.5"/>
<path d="M12.6667 23.3333C12.6667 25.1743 11.1743 26.6667 9.33333 26.6667C7.49238 26.6667 6 25.1743 6 23.3333C6 21.4924 7.49238 20 9.33333 20C11.1743 20 12.6667 21.4924 12.6667 23.3333Z" stroke="#1C2330" stroke-width="1.5"/>
<path d="M19.3333 23.3335H12.6667M2.66667 5.3335H16C17.8856 5.3335 18.8284 5.3335 19.4142 5.91928C20 6.50507 20 7.44788 20 9.3335V20.6668M20.6667 8.66683H23.0686C24.1748 8.66683 24.7279 8.66683 25.1864 8.92643C25.6449 9.18603 25.9294 9.6603 26.4985 10.6088L28.7633 14.3834C29.0466 14.8555 29.1882 15.0916 29.2608 15.3536C29.3333 15.6156 29.3333 15.8909 29.3333 16.4414V20.0002C29.3333 21.2463 29.3333 21.8694 29.0654 22.3335C28.8899 22.6375 28.6374 22.89 28.3333 23.0655C27.8692 23.3335 27.2462 23.3335 26 23.3335M2.66667 17.3335V20.0002C2.66667 21.2463 2.66667 21.8694 2.93462 22.3335C3.11016 22.6375 3.36263 22.89 3.66667 23.0655C4.13077 23.3335 4.75385 23.3335 6 23.3335" stroke="#1C2330" stroke-width="1.5" stroke-linecap="round" stroke-linejoin="round"/>
<path d="M2.66667 9.3335H10.6667M2.66667 13.3335H8.00001" stroke="#1C2330" stroke-width="1.5" stroke-linecap="round" stroke-linejoin="round"/>
</svg>
