<svg width="32" height="32" viewBox="0 0 32 32" fill="none" xmlns="http://www.w3.org/2000/svg">
<path d="M16 29.3335C14.9091 29.3335 13.8669 28.8933 11.7826 28.0128C6.59419 25.8211 4 24.7252 4 22.8819C4 22.3658 4 13.4195 4 9.3335M16 29.3335C17.0909 29.3335 18.1331 28.8933 20.2174 28.0128C25.4058 25.8211 28 24.7252 28 22.8819V9.3335M16 29.3335L16 15.1399" stroke="#1C2330" stroke-width="1.5" stroke-linecap="round" stroke-linejoin="round"/>
<path d="M11.1012 12.9219L7.20629 11.0372C5.06876 10.0029 4 9.48572 4 8.66675C4 7.84777 5.06876 7.33061 7.20629 6.29629L11.1012 4.41157C13.5051 3.24836 14.7071 2.66675 16 2.66675C17.2929 2.66675 18.4949 3.24835 20.8988 4.41157L24.7937 6.29628C26.9312 7.33061 28 7.84777 28 8.66675C28 9.48572 26.9312 10.0029 24.7937 11.0372L20.8988 12.9219C18.4949 14.0851 17.2929 14.6667 16 14.6667C14.7071 14.6667 13.5051 14.0851 11.1012 12.9219Z" stroke="#1C2330" stroke-width="1.5" stroke-linecap="round" stroke-linejoin="round"/>
<path d="M8 16L10.6667 17.3333" stroke="#1C2330" stroke-width="1.5" stroke-linecap="round" stroke-linejoin="round"/>
<path d="M22.6667 5.3335L9.33333 12.0002" stroke="#1C2330" stroke-width="1.5" stroke-linecap="round" stroke-linejoin="round"/>
</svg>
