<svg width="863" height="250" overflow="visible" style="display: block;" viewBox="0 0 863 250" fill="none" xmlns="http://www.w3.org/2000/svg">
<g id="&#208;&#187;&#208;&#190;&#208;&#179;&#208;&#190;">
<path id="Vector" d="M77.8508 0.603263C80.8051 2.38527 91.0209 11.5189 94.1193 14.1999C104.32 23.0297 114.586 31.785 124.916 40.4644C118.837 48.0834 109.037 56.7368 102.038 63.7389L59.3373 106.671C55.6262 110.39 43.9057 121.263 41.3719 124.685C50.8757 134.789 62.5165 145.741 72.4337 155.683C89.8436 173.374 107.398 190.921 125.097 208.323C113.143 218.884 99.2104 230.967 86.8681 241.115C83.9587 243.628 81.0229 246.111 78.0611 248.562C52.4325 223.389 27.2163 197.094 1.43331 172.243C3.25598 168.585 12.3945 158.517 15.5793 154.788L41.4328 124.406C27.9349 109.788 14.924 92.1604 1.30088 77.8954C3.74289 74.4201 21.1925 57.2472 24.8446 53.5898L77.8508 0.603263Z" fill="var(--fill-0, #1A273F)"/>
<path id="Vector_2" d="M125.254 40.5634C141.255 26.6843 154.945 13.3216 172.222 0.449025C174.732 2.29423 180.663 8.6303 183.146 11.133L203.206 31.2813C216.682 44.9793 230.859 58.4834 244.145 72.4083C245.718 74.0569 247.18 75.9011 248.228 77.9327C247.55 81.0726 214.476 117.798 209.171 124.674L208.868 124.817C205.254 119.072 189.736 106.148 184.359 100.332C165.401 79.8231 144.336 60.9616 125.254 40.5634Z" fill="var(--fill-0, #F95838)"/>
<path id="Vector_3" d="M209.171 124.674C217.2 134.345 224.877 143.615 233.221 153.024C236.159 156.337 246.9 168.538 248.548 171.946C244.423 177.3 228.381 192.467 222.905 197.89L172.224 248.722L145.748 226.007C139.267 220.502 131.549 214.206 125.472 208.331C143.194 190.009 161.161 171.924 179.367 154.082C188.498 144.995 199.55 133.17 208.868 124.817L209.171 124.674Z" fill="var(--fill-0, #1A273F)"/>
<path id="Vector_4" d="M607.351 171.648C620.565 168.792 633.596 177.199 636.411 190.404C639.232 203.609 630.77 216.588 617.537 219.361C604.36 222.122 591.429 213.72 588.623 200.573C585.817 187.427 594.193 174.491 607.351 171.648ZM616.186 210.234C628.838 204.906 631.172 188.51 617.943 181.84C615.534 180.627 611.353 180.966 608.617 181.224C591.5 185.778 597.557 214.375 616.186 210.234Z" fill="var(--fill-0, #1A273F)"/>
<path id="Vector_5" d="M397.972 68.7844C402.347 60.5366 409.677 58.5575 418.512 59.8362C438.662 62.7531 431.755 91.5226 432.726 106.044L422.427 106.01C422.968 98.1172 423.334 82.6475 421.639 74.8719C421.359 73.5913 419.526 71.3419 418.636 70.2329C398.369 62.8847 401.334 85.1804 401.393 97.2068C401.377 100.175 401.387 103.142 401.424 106.11L391.102 106.047C391.573 99.136 391.514 81.7787 390.84 75.4021C390.267 74.4578 388.819 72.297 387.989 71.748C364.908 56.4703 369.074 99.0733 369.546 106.125C366.365 105.976 362.63 106.089 359.407 106.107C359.714 91.2731 359.415 75.212 359.423 60.3041C362.528 60.3951 365.805 60.3687 368.927 60.3966C368.768 63.2596 368.491 65.8544 368.167 68.7052C368.705 67.8562 369.261 67.0189 369.834 66.1935C372.742 62.0394 376.02 60.4121 380.846 59.565C389.115 59.1575 394.042 61.505 397.972 68.7844Z" fill="var(--fill-0, #1A273F)"/>
<path id="Vector_6" d="M321.845 40.1828C327.355 39.5818 342.026 41.5799 345.512 46.1292C346.002 48.7282 342.913 52.2766 341.252 54.7213C335.79 50.6498 332.21 49.8324 325.341 49.738C322.208 49.4989 316.307 50.0267 314.171 52.7228C304.065 65.6067 324.777 66.9142 332.242 68.9424C340.146 71.1338 349.543 76.4294 349.27 85.8832C348.781 102.795 336.645 107.47 321.977 107.636C313.799 107.331 305.189 104.391 298.704 99.3633C299.971 96.637 302.066 93.5079 303.699 90.9156C310.91 95.6942 319.181 98.6714 327.813 97.7111C333.534 97.0748 339.669 92.1764 338.271 85.904C336.446 77.7095 325.41 77.5086 317.956 76.0157C303.335 73.0875 295.005 61.8578 304.299 48.2527C308.215 42.5195 314.92 41.0624 321.845 40.1828Z" fill="var(--fill-0, #1A273F)"/>
<path id="Vector_7" d="M416.274 171.778C417.512 171.692 418.75 171.632 419.99 171.599C442.224 171.033 445.347 182.085 444.388 201.454C444.133 206.605 444.265 213.08 444.398 218.296L435.037 218.379C434.962 215.973 435.176 212.788 435.274 210.324C427.047 220.969 418.673 221.073 407.021 216.306C398.36 207.945 398.191 197.225 409.806 191.297C417.431 187.406 426.409 189.466 434.142 192.188C433.051 183.991 430.672 180.524 421.46 180.623C416.695 180.674 411.354 181.143 406.999 183.226C406.247 180.551 405.331 177.804 404.487 175.147C408.774 173.423 411.657 172.162 416.274 171.778ZM426.62 209.926C431.658 206.685 431.912 206.129 434.48 200.628C428.494 197.698 424.472 196.421 417.739 197.235C403.531 203.236 416.16 214.454 426.62 209.926Z" fill="var(--fill-0, #1A273F)"/>
<path id="Vector_8" d="M460.107 59.5673L460.286 59.5622C484.523 59.0881 485.397 68.6019 485.189 89.1628C485.085 94.8282 485.066 100.495 485.142 106.161L476.316 106.016L476.945 98.2988C475.783 99.5284 474.148 101.249 472.872 102.323C465.989 108.112 451.716 109.171 445.461 101.579C441.861 96.4517 441.114 91.3712 443.887 85.5998C448.097 76.8379 458.425 76.5681 466.792 77.769C468.677 78.0388 473.529 79.8995 474.88 79.45L475.362 78.1383C474.975 74.6186 473.581 72.8758 471.403 70.2466C462.757 66.9411 457.475 67.8264 448.489 70.7197C447.445 69.5221 446.647 65.6204 445.267 63.1092C451.409 60.881 453.691 60.1937 460.107 59.5673ZM455.836 97.3144C460.598 98.9799 462.134 99.3605 467.193 97.9059C472.461 95.6192 473.241 93.598 475.731 88.5605C470.784 85.6498 465.875 84.0951 460.022 84.9149C455.571 85.7144 451.952 87.8275 452.84 92.9561C453.1 94.4659 454.848 96.155 455.836 97.3144Z" fill="var(--fill-0, #1A273F)"/>
<path id="Vector_9" d="M670.504 59.5688C705.163 57.974 693.271 83.6404 695.586 106.12L686.562 105.958C686.723 103.517 686.798 102.319 686.572 99.8737C684.88 99.5591 674.071 114.967 656.486 102.052C649.375 94.0957 652.98 81.3014 663.388 78.3496C670.872 76.2275 678.441 76.9067 685.362 80.384C685.23 76.1992 685.088 72.2527 680.883 69.9047C674.293 66.2227 665.274 69.0401 658.475 70.6711C658.092 68.3283 657.029 65.1176 656.321 62.7667C662.099 60.7715 664.485 60.1668 670.504 59.5688ZM677.85 97.9125C681.294 96.6026 683.231 94.6499 684.734 91.3212C685.159 90.375 685.551 89.4147 685.905 88.4412C680.576 85.2314 676.031 84.139 669.738 84.9809C667.414 85.5347 665.023 86.6625 663.695 88.7544C662.973 89.8703 662.76 91.2368 663.1 92.5193C664.655 98.4332 672.171 99.7577 677.354 98.0809C677.519 98.0271 677.685 97.9714 677.85 97.9125Z" fill="var(--fill-0, #1A273F)"/>
<path id="Vector_10" d="M786.377 59.5306C787.223 59.4626 788.073 59.4183 788.924 59.3975C806.938 59.0051 811.313 71.3654 811.521 86.7997C799.563 86.5568 787.511 87.0087 775.44 86.6483C779.777 101.411 791.73 100.843 803.196 94.5008C803.707 94.3716 804.212 94.4353 804.751 94.4485C813.94 101.956 801.302 105.644 795.406 106.822C783.802 109.137 770.2 104.003 766.813 91.8377C762.386 75.9624 769.657 62.2903 786.377 59.5306ZM775.676 79.4029C780.991 79.1963 785.999 79.2062 791.324 79.2425C794.73 79.2496 798.306 79.1991 801.699 79.2708C800.092 69.6943 795.354 68.2929 786.509 68.4807C779.819 70.1311 777.802 73.4116 775.676 79.4029Z" fill="var(--fill-0, #1A273F)" fill-opacity="0.984314"/>
<path id="Vector_11" d="M299.604 153.24C305.826 153.71 342.764 152.402 346.036 153.89C349.89 159.678 321.142 192.524 317.834 199.489C317.064 201.11 311.762 207.695 310.515 208.987C321.678 208.407 335.119 208.742 346.452 208.75C346.374 211.953 346.336 215.157 346.338 218.361C330.403 217.945 312.459 218.329 296.374 218.363C296.625 213.855 297.216 211.295 300.007 207.551C310.928 192.905 321.075 177.036 332.219 162.635C321.36 163.165 310.054 162.439 299.501 163.042L299.604 153.24Z" fill="var(--fill-0, #1A273F)"/>
<path id="Vector_12" d="M589.19 41.0191L600.34 41.1247C604.53 52.07 609.127 63.0158 613.318 73.9823C614.438 76.9147 619.734 91.4712 621.047 93.2207C620.419 93.6598 640.333 44.1666 641.386 41.1379C645.35 40.9903 648.927 41.1016 652.876 41.219C650.935 44.884 650.056 47.0636 648.596 50.8781C647.377 54.8704 643.98 62.5988 642.284 66.9227C637.087 80.0373 631.777 93.107 626.353 106.13L614.896 105.988C609.741 91.9552 602.943 77.2695 597.633 63.1332C595.695 57.974 590.036 46.0382 589.19 41.0191Z" fill="var(--fill-0, #1A273F)"/>
<path id="Vector_13" d="M852.067 60.3961L862.985 60.3423C859.787 69.9051 851.783 88.5798 847.786 98.0936C846.671 101.584 845.037 105.118 843.752 108.648C840.43 117.789 836.131 129.619 824.145 128.677C822.038 128.511 818.064 127.71 816.661 126.052C816.227 123.168 818.282 120.485 819.77 117.93C819.973 118.02 820.176 118.108 820.379 118.193C829.413 121.978 831.435 114.213 834.227 107.621C826.98 92.5037 821.414 76.611 814.327 61.4192C814.327 61.4192 814.441 60.5267 814.45 60.4456C818.046 60.3701 821.641 60.3928 825.236 60.514C829.795 71.381 835.706 85.6399 839.07 96.6885C843.728 85.5767 847.149 72.1244 852.067 60.3961Z" fill="var(--fill-0, #1A273F)"/>
<path id="Vector_14" d="M555.046 171.733C556.491 171.655 557.942 171.611 559.397 171.601C564.552 171.597 569.219 172.926 572.938 176.599C577.662 181.271 578.182 188.028 578.149 194.279C578.101 202.344 578.078 210.376 578.031 218.425C574.497 218.298 571.497 218.326 567.986 218.414C568.052 209.214 568.96 193.43 566.451 185.118C561.585 181.097 555.764 179.003 549.887 182.641C541.108 188.962 543.764 207.867 543.66 218.409C540.438 218.283 536.752 218.358 533.493 218.347C533.719 205.193 532.902 184.741 533.828 172.19C536.105 172.404 540.447 172.204 542.885 172.158C542.823 174.344 542.578 177.543 543.14 179.554C545.257 179.379 547.085 173.146 555.046 171.733Z" fill="var(--fill-0, #1A273F)"/>
<path id="Vector_15" d="M697.258 171.768C706.344 171.39 710.137 171.47 718.311 175.764C717.333 178.64 716.435 180.944 715.254 183.746C710.827 180.836 698.227 178.242 694.244 182.58C694.022 183.357 693.663 184.715 693.791 185.545C694.958 193.048 711.21 190.197 717.035 196.223C719.142 198.053 720.72 200.342 720.801 203.327C721.117 215.21 712.443 219.169 702.484 219.872C695.147 219.819 687.828 218.15 681.568 214.199C683.137 211.513 684.049 209.445 685.301 206.587C691.287 208.702 703.585 214.996 709.278 208.192C711.2 205.52 710.941 202.337 707.719 201.004C699.607 197.648 686.146 198.979 683.77 187.913C681.885 179.116 689.345 172.926 697.258 171.768Z" fill="var(--fill-0, #1A273F)"/>
<path id="Vector_16" d="M348.807 172.256L359.043 172.158C362.433 177.909 371.168 201.686 373.227 208.594C376.838 197.207 383.156 183.497 387.272 172.188C390.663 172.307 394.629 172.2 398.066 172.194C396.856 175.235 396.187 177.497 394.727 180.595C392.799 184.303 390.408 190.675 388.757 194.652L378.777 218.336C374.875 218.375 371.525 218.35 367.613 218.167C365.5 212.005 348.487 174.841 348.807 172.256Z" fill="var(--fill-0, #1A273F)"/>
<path id="Vector_17" d="M657.672 159.497C658.99 159.316 659.283 159.237 660.601 159.54C662.444 161.637 661.631 169.028 661.551 172.304C665.519 172.039 670.839 172.175 674.926 172.183C674.897 175.399 674.902 178.129 675.105 181.35C670.527 181.418 666.1 181.515 661.522 181.319C661.711 186.788 661.546 192.825 661.447 198.307C661.272 207.834 663.7 212.44 673.872 209.08C675.105 211.773 677.883 215.764 675.086 217.631C647.25 226.008 651.166 199.663 651.558 181.39C648.743 181.361 645.738 181.477 642.908 181.538L643.305 172.138L651.317 172.221L651.303 160.784L657.672 159.497Z" fill="var(--fill-0, #1A273F)"/>
<path id="Vector_18" d="M505.231 159.47C506.549 159.333 507.933 159.026 509.062 159.664C510.857 161.958 509.941 168.753 509.889 172.331C513.829 172.05 518.847 172.18 522.886 172.18C522.848 175.497 522.848 178.138 523.089 181.461C519.314 181.157 514.146 181.505 509.87 181.283C509.903 182.278 509.837 183.692 509.946 184.621C511.056 194.011 504.503 215.195 521.988 208.997C522.735 210.871 524.445 214.532 524.256 216.443C524.223 216.789 523.292 217.386 522.919 217.68C513.933 220.453 512.813 220.08 504.446 216.092C499.949 210.084 499.802 206.488 499.811 199.047C499.821 193.171 499.859 187.325 500.067 181.442C496.608 181.293 494.279 181.221 490.835 181.461L491.156 172.025C493.561 172.26 497.421 172.156 499.944 172.158C499.708 169.772 499.944 163.409 499.977 160.723L505.231 159.47Z" fill="var(--fill-0, #1A273F)"/>
<path id="Vector_19" d="M544.949 47.7419L550.983 47.4315C550.605 50.0267 550.652 57.3552 550.609 60.2843L564.509 60.381C564.419 63.1318 564.443 66.0666 564.414 68.8354L550.699 68.791C550.822 76.0237 550.151 83.6961 550.827 90.8222C551.587 98.869 558.003 98.1648 563.663 97.2809C564.471 100.397 564.929 102.009 566.172 104.961C536.157 114.586 540.986 88.1214 541.066 68.6387L532.16 68.9646L532.141 60.2937L541.042 60.4767C540.976 56.6113 540.442 52.7601 541.463 49.1447C542.734 47.7386 542.752 48.1178 544.949 47.7419Z" fill="var(--fill-0, #1A273F)"/>
<path id="Vector_20" d="M709.117 41.0125L719.298 41.0143C719.166 48.4466 718.179 92.4849 720.366 96.0206C722.45 99.3865 727.873 97.1319 730.037 100.302C730.925 101.601 730.807 104.918 730.486 106.41C724.618 108.17 713.643 107.506 711.243 101.82C707.034 91.8368 709.112 72.7706 708.673 61.8159C708.446 56.2095 708.337 45.1807 709.117 41.0125Z" fill="var(--fill-0, #1A273F)"/>
<path id="Vector_21" d="M739.51 41.0403L748.964 41.1106C748.898 48.3272 747.868 91.65 750.055 95.4376C752.257 99.2393 758.309 97.2535 760.35 100.694C761.092 101.948 761.068 104.908 760.737 106.301C752.129 108.569 740.176 107.351 739.888 96.5423C739.411 78.7604 738.82 58.7551 739.51 41.0403Z" fill="var(--fill-0, #1A273F)"/>
<path id="Vector_22" d="M477.389 171.742C480.441 171.537 483.616 171.695 486.682 171.79C486.054 174.798 485.033 178.442 484.272 181.476C480.19 181.059 478.759 181.133 474.677 181.634C468.162 186.634 467.704 190.207 467.704 198.108C467.708 204.873 467.722 211.642 467.935 218.415L458.888 218.314L458.226 218.193C456.714 215.901 457.588 177.605 457.843 172.046C460.64 172.281 463.522 171.729 466.135 172.532C467.515 173.82 466.834 175.281 466.962 178.083C467.807 178.611 468.1 177.907 468.937 177.113C471.63 174.56 473.42 172.507 477.209 171.776L477.389 171.742Z" fill="var(--fill-0, #1A273F)"/>
<path id="Vector_23" d="M520.259 59.5145C522.541 59.49 525.263 59.0749 526.784 60.5338C527.266 62.5554 526.349 67.1071 525.48 69.016C524.077 69.8089 523.174 68.6873 521.228 68.6717C504.574 68.5358 508.467 94.2221 508.675 106.148C505.523 106.008 501.942 106.048 498.753 106.006C498.111 104.49 498.64 65.836 498.46 60.5083C501.352 60.3192 505.306 60.43 508.278 60.4272L507.659 68.4948C511.235 62.7285 513.555 60.6885 520.259 59.5145Z" fill="var(--fill-0, #1A273F)"/>
</g>
</svg>
