<svg width="253" height="73" overflow="visible" style="display: block;" viewBox="0 0 253 73" fill="none" xmlns="http://www.w3.org/2000/svg">
<g id="&#208;&#187;&#208;&#190;&#208;&#179;&#208;&#190;" clip-path="url(#clip0_0_60)">
<path id="Vector" d="M22.823 0.176153C23.6891 0.696498 26.684 3.36351 27.5923 4.14636C30.5829 6.72467 33.5925 9.28122 36.6209 11.8156C34.8387 14.0404 31.9656 16.5671 29.9138 18.6118L17.3955 31.148C16.3076 32.234 12.8715 35.4088 12.1287 36.4082C14.9149 39.3583 18.3275 42.5564 21.2349 45.4595C26.3388 50.6251 31.4853 55.7489 36.674 60.8303C33.1694 63.9142 29.0849 67.4425 25.4665 70.4055C24.6136 71.1394 23.7529 71.8645 22.8847 72.5802C15.3713 65.2297 7.97882 57.5514 0.420193 50.2949C0.954534 49.2267 3.63362 46.287 4.56729 45.1981L12.1466 36.3265C8.18949 32.0581 4.37518 26.9108 0.381371 22.7455C1.09728 21.7307 6.21287 16.7162 7.28352 15.6482L22.823 0.176153Z" fill="var(--fill-0, white)"/>
<path id="Vector_2" d="M36.7199 11.8445C41.4108 7.79181 45.4242 3.88991 50.4891 0.131115C51.225 0.669916 52.9638 2.52005 53.6918 3.25084L59.5726 9.13413C63.5233 13.1339 67.6793 17.0772 71.5744 21.1432C72.0356 21.6246 72.464 22.1631 72.7713 22.7563C72.5725 23.6732 62.8764 34.3969 61.3214 36.4048L61.2324 36.4466C60.173 34.7689 55.6235 30.9954 54.0473 29.2969C48.4895 23.3084 42.314 17.8008 36.7199 11.8445Z" fill="var(--fill-0, #F95838)"/>
<path id="Vector_3" d="M61.3214 36.4048C63.675 39.2289 65.9258 41.9355 68.372 44.6831C69.2332 45.6504 72.382 49.2131 72.8651 50.2082C71.6558 51.7717 66.9529 56.2004 65.3476 57.7837L50.4898 72.6269L42.7281 65.994C40.8279 64.3865 38.5654 62.5482 36.7838 60.8327C41.9793 55.4825 47.2464 50.2018 52.5839 44.9919C55.2606 42.3387 58.5008 38.8855 61.2324 36.4466L61.3214 36.4048Z" fill="var(--fill-0, white)"/>
<path id="Vector_4" d="M178.053 50.1213C181.927 49.2873 185.747 51.7421 186.573 55.598C187.399 59.4537 184.919 63.2438 181.039 64.0534C177.176 64.8595 173.385 62.4061 172.563 58.5674C171.74 54.7286 174.196 50.9515 178.053 50.1213ZM180.643 61.3884C184.352 59.8326 185.037 55.045 181.158 53.0973C180.452 52.7429 179.226 52.842 178.424 52.9173C173.406 54.2472 175.182 62.5974 180.643 61.3884Z" fill="var(--fill-0, white)" fill-opacity="0.988235"/>
<path id="Vector_5" d="M116.671 20.0851C117.953 17.6767 120.102 17.0988 122.692 17.4722C128.6 18.3239 126.575 26.7246 126.859 30.9648L123.84 30.9549C123.999 28.6502 124.106 24.1331 123.609 21.8626C123.527 21.4887 122.99 20.8318 122.729 20.508C116.787 18.3623 117.656 24.8727 117.674 28.3844C117.669 29.251 117.672 30.1175 117.683 30.9841L114.657 30.9657C114.795 28.9477 114.777 23.8794 114.58 22.0174C114.412 21.7417 113.987 21.1107 113.744 20.9504C106.978 16.4893 108.199 28.9294 108.337 30.9886C107.405 30.9451 106.31 30.9781 105.365 30.9834C105.455 26.6517 105.367 21.9619 105.37 17.6088C106.28 17.6354 107.241 17.6277 108.156 17.6358C108.109 18.4718 108.028 19.2295 107.933 20.0619C108.091 19.814 108.254 19.5695 108.422 19.3285C109.274 18.1155 110.235 17.6403 111.65 17.393C114.074 17.274 115.519 17.9595 116.671 20.0851Z" fill="var(--fill-0, white)"/>
<path id="Vector_6" d="M94.3533 11.7334C95.9684 11.5579 100.27 12.1413 101.292 13.4697C101.435 14.2286 100.529 15.2648 100.043 15.9786C98.4413 14.7897 97.3917 14.5511 95.378 14.5235C94.4597 14.4537 92.7297 14.6078 92.1036 15.3951C89.1408 19.1572 95.2126 19.5389 97.4011 20.1312C99.7185 20.7711 102.473 22.3174 102.393 25.0779C102.25 30.0162 98.6921 31.3811 94.3918 31.4297C91.9944 31.3408 89.4703 30.4822 87.569 29.0141C87.9405 28.218 88.5546 27.3043 89.0333 26.5473C91.1474 27.9427 93.5721 28.812 96.1028 28.5316C97.7801 28.3458 99.5786 26.9155 99.1687 25.084C98.6337 22.6912 95.3983 22.6325 93.213 22.1966C88.9268 21.3416 86.4848 18.0625 89.2092 14.0898C90.3574 12.4157 92.3229 11.9902 94.3533 11.7334Z" fill="var(--fill-0, white)"/>
<path id="Vector_7" d="M122.036 50.1591C122.399 50.1339 122.762 50.1164 123.126 50.1068C129.644 49.9415 130.559 53.1689 130.278 58.8247C130.204 60.3287 130.242 62.2193 130.281 63.7424L127.537 63.7667C127.515 63.0642 127.578 62.1342 127.607 61.4146C125.194 64.523 122.739 64.5532 119.324 63.1614C116.785 60.7199 116.735 57.5898 120.14 55.8587C122.375 54.7225 125.007 55.324 127.274 56.1189C126.955 53.7254 126.257 52.7131 123.557 52.742C122.16 52.7569 120.594 52.8938 119.317 53.502C119.097 52.7209 118.828 51.9188 118.581 51.1428C119.838 50.6395 120.683 50.2712 122.036 50.1591ZM125.069 61.2985C126.546 60.352 126.621 60.1897 127.374 58.5833C125.619 57.728 124.44 57.3548 122.466 57.5927C118.301 59.3449 122.003 62.6205 125.069 61.2985Z" fill="var(--fill-0, white)" fill-opacity="0.988235"/>
<path id="Vector_8" d="M134.886 17.3937L134.939 17.3921C142.044 17.2537 142.301 20.0317 142.24 26.0355C142.209 27.6898 142.204 29.3445 142.226 30.9989L139.639 30.9566L139.823 28.7032C139.482 29.0623 139.003 29.5646 138.629 29.8782C136.611 31.5687 132.427 31.8779 130.593 29.661C129.537 28.1639 129.319 26.6804 130.132 24.9951C131.366 22.4367 134.393 22.3579 136.846 22.7085C137.399 22.7873 138.821 23.3307 139.217 23.1994L139.359 22.8164C139.245 21.7886 138.837 21.2797 138.198 20.512C135.663 19.5468 134.115 19.8053 131.481 20.6502C131.174 20.3005 130.94 19.1612 130.536 18.4279C132.337 17.7772 133.006 17.5766 134.886 17.3937ZM133.634 28.4158C135.03 28.9021 135.481 29.0133 136.964 28.5885C138.508 27.9208 138.737 27.3306 139.467 25.8597C138.017 25.0097 136.578 24.5558 134.861 24.7951C133.557 25.0286 132.496 25.6456 132.756 27.1432C132.832 27.584 133.345 28.0773 133.634 28.4158Z" fill="var(--fill-0, white)" fill-opacity="0.988235"/>
<path id="Vector_9" d="M196.567 17.3941C206.728 16.9284 203.242 24.423 203.92 30.9871L201.275 30.9398C201.322 30.227 201.344 29.8771 201.278 29.1631C200.782 29.0713 197.613 33.5704 192.458 29.7993C190.373 27.4759 191.43 23.74 194.481 22.8781C196.675 22.2584 198.894 22.4568 200.923 23.4721C200.884 22.2502 200.843 21.0978 199.61 20.4122C197.678 19.337 195.034 20.1597 193.041 20.636C192.929 19.9519 192.617 19.0143 192.409 18.3279C194.103 17.7453 194.803 17.5687 196.567 17.3941ZM198.721 28.5904C199.731 28.208 200.298 27.6378 200.739 26.6658C200.864 26.3895 200.978 26.1091 201.082 25.8248C199.52 24.8876 198.188 24.5686 196.343 24.8144C195.661 24.9761 194.96 25.3054 194.571 25.9163C194.359 26.2421 194.297 26.6411 194.397 27.0156C194.852 28.7425 197.056 29.1292 198.575 28.6396C198.624 28.6239 198.672 28.6077 198.721 28.5904Z" fill="var(--fill-0, white)" fill-opacity="0.988235"/>
<path id="Vector_10" d="M230.537 17.3829C230.785 17.3631 231.034 17.3501 231.284 17.3441C236.565 17.2295 237.847 20.8387 237.908 25.3455C234.403 25.2746 230.869 25.4065 227.331 25.3013C228.602 29.6121 232.106 29.446 235.468 27.5942C235.617 27.5565 235.766 27.5751 235.923 27.579C238.617 29.7712 234.912 30.8481 233.184 31.1919C229.782 31.868 225.795 30.369 224.801 26.8166C223.504 22.181 225.635 18.1888 230.537 17.3829ZM227.4 23.1856C228.958 23.1253 230.426 23.1282 231.987 23.1388C232.986 23.1409 234.034 23.1261 235.029 23.1471C234.558 20.3507 233.169 19.9415 230.576 19.9964C228.615 20.4783 228.023 21.4362 227.4 23.1856Z" fill="var(--fill-0, white)" fill-opacity="0.984314"/>
<path id="Vector_11" d="M87.833 44.7461C89.657 44.8832 100.486 44.5013 101.445 44.936C102.575 46.6261 94.1472 56.2171 93.1772 58.2509C92.9516 58.724 91.3973 60.647 91.0317 61.0241C94.3041 60.8547 98.2448 60.9526 101.567 60.955C101.544 61.8903 101.533 62.8258 101.534 63.7614C96.8622 63.6399 91.6016 63.7521 86.8859 63.7619C86.9597 62.4456 87.1327 61.698 87.951 60.605C91.1527 56.3283 94.1274 51.6945 97.3945 47.4894C94.2111 47.644 90.8966 47.4321 87.8028 47.6082L87.833 44.7461Z" fill="var(--fill-0, white)" fill-opacity="0.988235"/>
<path id="Vector_12" d="M172.729 11.9776L175.998 12.0084C177.226 15.2044 178.574 18.4006 179.802 21.6028C180.131 22.4591 181.683 26.7096 182.068 27.2204C181.884 27.3487 187.722 12.8966 188.031 12.0123C189.193 11.9692 190.242 12.0017 191.399 12.036C190.83 13.1061 190.573 13.7426 190.145 14.8564C189.787 16.0221 188.791 18.2789 188.294 19.5414C186.771 23.3709 185.214 27.1872 183.624 30.99L180.265 30.9485C178.754 26.8509 176.761 22.5627 175.204 18.4349C174.636 16.9284 172.977 13.4431 172.729 11.9776Z" fill="var(--fill-0, white)" fill-opacity="0.988235"/>
<path id="Vector_13" d="M249.795 17.6357L252.996 17.62C252.058 20.4123 249.712 25.8653 248.54 28.6433C248.213 29.6627 247.734 30.6944 247.357 31.7252C246.383 34.3943 245.123 37.8488 241.609 37.5736C240.991 37.5253 239.827 37.2914 239.415 36.8073C239.288 35.9651 239.89 35.1815 240.327 34.4354C240.386 34.4619 240.446 34.4875 240.505 34.5124C243.153 35.6174 243.746 33.3503 244.565 31.4253C242.44 27.0111 240.809 22.3704 238.731 17.9344C238.731 17.9344 238.764 17.6738 238.767 17.6501C239.821 17.6281 240.875 17.6347 241.929 17.6701C243.266 20.8433 244.998 25.0068 245.984 28.233C247.35 24.9884 248.353 21.0603 249.795 17.6357Z" fill="var(--fill-0, white)" fill-opacity="0.988235"/>
<path id="Vector_14" d="M162.719 50.1459C163.143 50.1233 163.568 50.1105 163.995 50.1075C165.506 50.1064 166.874 50.4944 167.964 51.5669C169.349 52.9312 169.502 54.9041 169.492 56.7294C169.478 59.0843 169.471 61.4299 169.457 63.78C168.421 63.7429 167.542 63.7512 166.513 63.7769C166.532 61.0904 166.798 56.4815 166.063 54.0544C164.636 52.8803 162.93 52.2687 161.207 53.3312C158.633 55.1769 159.412 60.6971 159.381 63.7756C158.437 63.7388 157.356 63.7605 156.4 63.7572C156.467 59.9162 156.227 53.9445 156.499 50.2794C157.166 50.3419 158.439 50.2835 159.154 50.2701C159.136 50.9084 159.064 51.8425 159.229 52.4297C159.849 52.3787 160.385 50.5585 162.719 50.1459Z" fill="var(--fill-0, white)"/>
<path id="Vector_15" d="M204.411 50.1562C207.074 50.0459 208.186 50.0693 210.582 51.3231C210.296 52.163 210.033 52.8358 209.686 53.6538C208.389 52.8042 204.695 52.0467 203.527 53.3133C203.462 53.5403 203.357 53.9368 203.394 54.1792C203.736 56.3701 208.501 55.5376 210.208 57.297C210.826 57.8315 211.289 58.4998 211.312 59.3713C211.405 62.8412 208.862 63.9974 205.943 64.2025C203.792 64.1872 201.646 63.6997 199.811 62.546C200.271 61.7619 200.538 61.1579 200.905 60.3233C202.66 60.9409 206.265 62.7789 207.934 60.7922C208.498 60.0119 208.422 59.0824 207.477 58.6932C205.099 57.7132 201.153 58.1018 200.456 54.8706C199.904 52.3019 202.091 50.4945 204.411 50.1562Z" fill="var(--fill-0, white)" fill-opacity="0.988235"/>
<path id="Vector_16" d="M102.257 50.2988L105.258 50.27C106.252 51.9495 108.813 58.8923 109.416 60.9094C110.475 57.5846 112.327 53.5812 113.534 50.2788C114.528 50.3135 115.691 50.2823 116.698 50.2807C116.344 51.1687 116.148 51.8291 115.719 52.7339C115.154 53.8166 114.453 55.6772 113.969 56.8385L111.044 63.7541C109.9 63.7654 108.918 63.7582 107.771 63.7049C107.151 61.9053 102.164 51.0535 102.257 50.2988Z" fill="var(--fill-0, white)" fill-opacity="0.988235"/>
<path id="Vector_17" d="M192.805 46.5732C193.192 46.5203 193.278 46.4973 193.664 46.5856C194.204 47.1981 193.966 49.3563 193.942 50.3127C195.106 50.2353 196.665 50.2752 197.864 50.2773C197.855 51.2165 197.857 52.0135 197.916 52.9542C196.574 52.9742 195.276 53.0023 193.934 52.9453C193.99 54.542 193.941 56.3049 193.912 57.9058C193.861 60.6875 194.573 62.0326 197.555 61.0514C197.916 61.8377 198.731 63.003 197.911 63.5483C189.75 65.9942 190.898 58.3016 191.013 52.9659C190.188 52.9574 189.307 52.9913 188.477 53.009L188.593 50.2644L190.942 50.2886L190.938 46.9489L192.805 46.5732Z" fill="var(--fill-0, white)"/>
<path id="Vector_18" d="M148.115 46.5653C148.502 46.5251 148.907 46.4357 149.238 46.6218C149.765 47.2916 149.496 49.276 149.481 50.3207C150.636 50.2387 152.107 50.2766 153.291 50.2765C153.28 51.245 153.28 52.0161 153.351 52.9867C152.244 52.8978 150.729 52.9994 149.475 52.9347C149.485 53.2253 149.466 53.6381 149.497 53.9094C149.823 56.6513 147.902 62.8369 153.028 61.0271C153.247 61.5743 153.748 62.6433 153.693 63.2012C153.683 63.3023 153.41 63.4768 153.301 63.5626C150.666 64.3723 150.338 64.2633 147.885 63.0989C146.567 61.3446 146.524 60.2946 146.526 58.1219C146.529 56.4059 146.54 54.699 146.601 52.9809C145.587 52.9377 144.905 52.9165 143.895 52.9867L143.989 50.2314C144.694 50.2999 145.826 50.2695 146.565 50.2701C146.496 49.5735 146.565 47.7154 146.575 46.931L148.115 46.5653Z" fill="var(--fill-0, white)" fill-opacity="0.988235"/>
<path id="Vector_19" d="M159.759 13.9406L161.528 13.85C161.417 14.6078 161.431 16.7477 161.419 17.603L165.493 17.6312C165.467 18.4345 165.474 19.2914 165.466 20.0999L161.445 20.087C161.481 22.1989 161.284 24.4393 161.482 26.5201C161.705 28.8698 163.586 28.6641 165.245 28.406C165.482 29.3159 165.617 29.7866 165.981 30.6485C157.182 33.4591 158.597 25.7314 158.621 20.0425L156.01 20.1377L156.004 17.6058L158.614 17.6592C158.594 16.5305 158.438 15.4059 158.737 14.3502C159.11 13.9397 159.115 14.0504 159.759 13.9406Z" fill="var(--fill-0, white)"/>
<path id="Vector_20" d="M207.887 11.9756L210.872 11.9762C210.833 14.1464 210.544 27.0056 211.185 28.038C211.796 29.0209 213.386 28.3625 214.02 29.2883C214.281 29.6674 214.246 30.636 214.152 31.0718C212.432 31.5857 209.214 31.3919 208.51 29.7315C207.276 26.8163 207.886 21.249 207.757 18.0502C207.69 16.4132 207.659 13.1928 207.887 11.9756Z" fill="var(--fill-0, white)"/>
<path id="Vector_21" d="M216.797 11.9838L219.569 12.0043C219.549 14.1116 219.247 26.7618 219.889 27.8678C220.534 28.9779 222.308 28.398 222.907 29.4028C223.124 29.7687 223.117 30.6331 223.02 31.0398C220.497 31.7022 216.993 31.3464 216.908 28.1903C216.768 22.998 216.595 17.1565 216.797 11.9838Z" fill="var(--fill-0, white)" fill-opacity="0.988235"/>
<path id="Vector_22" d="M139.953 50.1488C140.848 50.0889 141.778 50.135 142.677 50.1626C142.493 51.0412 142.194 52.1051 141.971 52.9909C140.774 52.8693 140.355 52.8907 139.158 53.0371C137.248 54.4971 137.114 55.5404 137.114 57.8476C137.115 59.823 137.119 61.7994 137.181 63.7772L134.529 63.7476L134.335 63.7125C133.892 63.0431 134.148 51.8605 134.223 50.2374C135.043 50.3061 135.888 50.1449 136.654 50.3792C137.058 50.7554 136.859 51.1821 136.896 52.0002C137.144 52.1544 137.23 51.9488 137.475 51.717C138.265 50.9715 138.789 50.3719 139.9 50.1587L139.953 50.1488Z" fill="var(--fill-0, white)"/>
<path id="Vector_23" d="M152.521 17.3782C153.19 17.3711 153.988 17.2499 154.434 17.6759C154.575 18.2662 154.306 19.5953 154.051 20.1527C153.64 20.3842 153.376 20.0567 152.805 20.0521C147.923 20.0125 149.064 27.5128 149.125 30.9951C148.201 30.9544 147.151 30.9659 146.216 30.9539C146.028 30.511 146.183 19.2241 146.13 17.6684C146.978 17.6132 148.137 17.6456 149.008 17.6447L148.827 20.0005C149.875 18.3167 150.556 17.7211 152.521 17.3782Z" fill="var(--fill-0, white)" fill-opacity="0.988235"/>
</g>
<defs>
<clipPath id="clip0_0_60">
<rect width="253" height="73" fill="white"/>
</clipPath>
</defs>
</svg>
