<svg width="907" height="262" overflow="visible" style="display: block;" viewBox="0 0 907 262" fill="none" xmlns="http://www.w3.org/2000/svg">
<g id="&#208;&#187;&#208;&#190;&#208;&#179;&#208;&#190;">
<path id="Vector" d="M81.8201 0.63222C84.9249 2.49976 95.6616 12.0718 98.9179 14.8815C109.639 24.1351 120.428 33.3107 131.285 42.4067C124.896 50.3914 114.596 59.4602 107.24 66.7984L62.3627 111.791C58.4623 115.689 46.1442 127.084 43.4812 130.67C53.4696 141.259 65.7039 152.737 76.1267 163.156C94.4242 181.695 112.874 200.085 131.476 218.323C118.912 229.391 104.269 242.054 91.297 252.688C88.2393 255.322 85.1538 257.924 82.041 260.493C55.1057 234.112 28.6039 206.554 1.50638 180.511C3.42199 176.677 13.0265 166.126 16.3736 162.218L43.5453 130.377C29.3591 115.058 15.6849 96.5841 1.36721 81.6344C3.93372 77.9922 22.273 59.995 26.1113 56.1621L81.8201 0.63222Z" fill="var(--fill-0, white)"/>
<path id="Vector_2" d="M131.64 42.5105C148.457 27.9651 162.845 13.961 181.003 0.470579C183.641 2.40436 189.874 9.04455 192.484 11.6674L213.567 32.7828C227.73 47.1383 242.629 61.2906 256.593 75.8839C258.246 77.6116 259.782 79.5444 260.884 81.6734C260.171 84.9641 225.411 123.452 219.836 130.658L219.517 130.808C215.719 124.787 199.409 111.244 193.759 105.148C173.834 83.6546 151.695 63.8878 131.64 42.5105Z" fill="var(--fill-0, white)"/>
<path id="Vector_3" d="M219.836 130.658C228.274 140.794 236.343 150.508 245.112 160.37C248.2 163.841 259.488 176.628 261.22 180.199C256.885 185.811 240.025 201.706 234.27 207.388L181.005 260.661L153.179 236.855C146.367 231.086 138.256 224.488 131.869 218.331C150.495 199.129 169.377 180.176 188.512 161.478C198.108 151.955 209.724 139.562 219.517 130.808L219.836 130.658Z" fill="var(--fill-0, white)"/>
<path id="Vector_4" d="M638.317 179.887C652.205 176.894 665.899 185.704 668.859 199.543C671.823 213.382 662.93 226.984 649.022 229.89C635.173 232.783 621.583 223.978 618.634 210.201C615.684 196.423 624.488 182.867 638.317 179.887ZM647.602 220.325C660.899 214.742 663.352 197.559 649.449 190.568C646.917 189.296 642.522 189.652 639.647 189.922C621.658 194.695 628.023 224.665 647.602 220.325Z" fill="var(--fill-0, white)"/>
<path id="Vector_5" d="M418.263 72.0861C422.861 63.4424 430.564 61.3682 439.85 62.7083C461.027 65.7652 453.768 95.9157 454.788 111.134L443.964 111.098C444.533 102.827 444.918 86.6146 443.136 78.4658C442.842 77.1237 440.915 74.7663 439.98 73.6041C418.68 65.9031 421.796 89.2691 421.858 101.873C421.841 104.983 421.852 108.093 421.891 111.203L411.042 111.137C411.537 103.895 411.475 85.7041 410.767 79.0214C410.164 78.0317 408.643 75.7673 407.771 75.1919C383.513 59.1809 387.891 103.829 388.387 111.219C385.045 111.063 381.118 111.182 377.731 111.201C378.054 95.6542 377.739 78.8222 377.748 63.1987C381.012 63.2941 384.456 63.2664 387.736 63.2956C387.57 66.2961 387.278 69.0154 386.938 72.003C387.503 71.1133 388.088 70.2358 388.69 69.3708C391.746 65.0173 395.191 63.3119 400.263 62.4241C408.954 61.997 414.132 64.4572 418.263 72.0861Z" fill="var(--fill-0, white)"/>
<path id="Vector_6" d="M338.255 42.1115C344.045 41.4818 359.464 43.5757 363.128 48.3434C363.643 51.0671 360.396 54.7859 358.651 57.3479C352.91 53.081 349.147 52.2243 341.928 52.1255C338.636 51.8748 332.434 52.428 330.189 55.2535C319.568 68.7558 341.335 70.1261 349.181 72.2517C357.489 74.5483 367.364 80.098 367.077 90.0056C366.563 107.729 353.809 112.628 338.393 112.803C329.798 112.483 320.749 109.402 313.933 104.133C315.265 101.276 317.467 97.9963 319.183 95.2795C326.762 100.287 335.454 103.408 344.526 102.401C350.54 101.734 356.987 96.6008 355.518 90.0274C353.6 81.4396 342.001 81.229 334.167 79.6645C318.801 76.5957 310.046 64.827 319.813 50.5688C323.929 44.5604 330.976 43.0334 338.255 42.1115Z" fill="var(--fill-0, white)"/>
<path id="Vector_7" d="M437.498 180.023C438.799 179.933 440.1 179.87 441.403 179.835C464.771 179.242 468.053 190.826 467.045 211.124C466.777 216.522 466.916 223.308 467.055 228.774L457.218 228.861C457.138 226.34 457.364 223.002 457.467 220.419C448.82 231.576 440.019 231.684 427.773 226.689C418.67 217.926 418.493 206.692 430.7 200.479C438.714 196.401 448.149 198.56 456.276 201.413C455.13 192.823 452.63 189.189 442.948 189.293C437.94 189.347 432.327 189.838 427.75 192.021C426.959 189.218 425.997 186.339 425.109 183.554C429.615 181.747 432.645 180.426 437.498 180.023ZM448.371 220.003C453.666 216.606 453.933 216.023 456.632 210.258C450.341 207.188 446.114 205.849 439.037 206.703C424.105 212.991 437.377 224.748 448.371 220.003Z" fill="var(--fill-0, white)"/>
<path id="Vector_8" d="M483.565 62.4266L483.754 62.4211C509.226 61.9243 510.145 71.8948 509.926 93.4426C509.817 99.3799 509.797 105.319 509.877 111.256L500.601 111.105L501.262 103.017C500.04 104.306 498.322 106.109 496.982 107.234C489.747 113.301 474.747 114.411 468.172 106.455C464.389 101.081 463.604 95.757 466.519 89.7086C470.943 80.5261 481.797 80.2433 490.591 81.5019C492.572 81.7846 497.672 83.7347 499.092 83.2636L499.598 81.8889C499.191 78.2003 497.726 76.3738 495.437 73.6185C486.351 70.1543 480.799 71.0821 471.355 74.1143C470.258 72.8592 469.419 68.7702 467.969 66.1384C474.424 63.8033 476.822 63.083 483.565 62.4266ZM479.076 101.985C484.082 103.731 485.695 104.13 491.013 102.605C496.55 100.209 497.369 98.0907 499.986 92.8114C494.787 89.761 489.628 88.1317 483.476 88.9908C478.798 89.8287 474.995 92.0432 475.928 97.418C476.201 99.0003 478.039 100.77 479.076 101.985Z" fill="var(--fill-0, white)"/>
<path id="Vector_9" d="M704.689 62.4281C741.115 60.7568 728.617 87.6551 731.05 111.214L721.567 111.044C721.735 108.486 721.815 107.23 721.576 104.668C719.799 104.338 708.438 120.485 689.957 106.951C682.484 98.6122 686.272 85.2038 697.211 82.1104C705.076 79.8864 713.031 80.5983 720.305 84.2424C720.166 79.8568 720.017 75.7208 715.598 73.2601C708.671 69.4014 699.192 72.354 692.047 74.0633C691.645 71.6081 690.528 68.2432 689.783 65.7795C695.856 63.6886 698.363 63.0548 704.689 62.4281ZM712.41 102.612C716.03 101.24 718.066 99.1931 719.645 95.7046C720.092 94.713 720.504 93.7066 720.876 92.6863C715.275 89.3225 710.499 88.1776 703.885 89.06C701.442 89.6403 698.929 90.8222 697.534 93.0146C696.774 94.1841 696.551 95.6162 696.908 96.9602C698.542 103.158 706.442 104.546 711.889 102.789C712.063 102.732 712.237 102.674 712.41 102.612Z" fill="var(--fill-0, white)"/>
<path id="Vector_10" d="M826.47 62.388C827.359 62.3168 828.253 62.2704 829.147 62.2486C848.08 61.8374 852.678 74.791 852.896 90.9661C840.329 90.7115 827.662 91.1851 814.975 90.8074C819.534 106.279 832.096 105.683 844.147 99.0369C844.683 98.9014 845.215 98.9682 845.781 98.982C855.439 106.85 842.156 110.715 835.959 111.949C823.764 114.376 809.469 108.995 805.909 96.2459C801.256 79.6086 808.898 65.2803 826.47 62.388ZM815.224 83.2142C820.81 82.9977 826.073 83.0081 831.669 83.0461C835.249 83.0535 839.008 83.0006 842.573 83.0758C840.885 73.0396 835.905 71.571 826.609 71.7677C819.578 73.4974 817.458 76.9353 815.224 83.2142Z" fill="var(--fill-0, white)"/>
<path id="Vector_11" d="M314.88 160.595C321.419 161.088 360.24 159.717 363.679 161.277C367.729 167.343 337.516 201.765 334.039 209.065C333.23 210.763 327.658 217.665 326.347 219.018C338.078 218.41 352.205 218.761 364.115 218.77C364.034 222.127 363.994 225.484 363.996 228.842C347.249 228.406 328.39 228.809 311.484 228.844C311.749 224.12 312.369 221.437 315.303 217.514C326.781 202.165 337.445 185.534 349.157 170.441C337.745 170.996 325.863 170.236 314.771 170.868L314.88 160.595Z" fill="var(--fill-0, white)"/>
<path id="Vector_12" d="M619.23 42.988L630.948 43.0987C635.352 54.5694 640.184 66.0405 644.588 77.5335C645.765 80.6067 651.331 95.8619 652.711 97.6953C652.051 98.1555 672.98 46.2866 674.087 43.1125C678.253 42.9578 682.012 43.0745 686.163 43.1976C684.122 47.0384 683.199 49.3227 681.665 53.3202C680.383 57.5042 676.813 65.6036 675.031 70.135C669.569 83.8791 663.988 97.5761 658.287 111.224L646.246 111.076C640.829 96.369 633.684 80.9784 628.103 66.1636C626.067 60.7568 620.118 48.248 619.23 42.988Z" fill="var(--fill-0, white)"/>
<path id="Vector_13" d="M895.509 63.2951L906.984 63.2387C903.623 73.2606 895.211 92.8317 891.011 102.802C889.839 106.461 888.121 110.163 886.77 113.863C883.28 123.442 878.761 135.841 866.164 134.853C863.949 134.68 859.773 133.84 858.299 132.103C857.842 129.08 860.002 126.268 861.566 123.59C861.779 123.685 861.993 123.777 862.206 123.867C871.7 127.832 873.826 119.695 876.76 112.787C869.143 96.9439 863.294 80.2883 855.846 64.3673C855.846 64.3673 855.965 63.432 855.975 63.347C859.754 63.2679 863.532 63.2916 867.311 63.4187C872.103 74.8073 878.314 89.7506 881.85 101.33C886.746 89.6843 890.34 75.5863 895.509 63.2951Z" fill="var(--fill-0, white)"/>
<path id="Vector_14" d="M583.345 179.976C584.864 179.895 586.389 179.849 587.918 179.838C593.335 179.834 598.241 181.226 602.149 185.076C607.114 189.972 607.66 197.053 607.626 203.604C607.576 212.056 607.551 220.474 607.501 228.909C603.787 228.776 600.634 228.806 596.945 228.898C597.015 219.256 597.968 202.714 595.331 194.003C590.217 189.789 584.1 187.595 577.923 191.408C568.697 198.032 571.487 217.845 571.378 228.893C567.992 228.761 564.119 228.839 560.693 228.827C560.931 215.042 560.072 193.609 561.045 180.455C563.438 180.679 568.002 180.47 570.564 180.422C570.499 182.712 570.241 186.065 570.832 188.173C573.057 187.989 574.978 181.457 583.345 179.976Z" fill="var(--fill-0, white)"/>
<path id="Vector_15" d="M732.808 180.013C742.357 179.617 746.344 179.701 754.934 184.201C753.906 187.215 752.963 189.63 751.721 192.566C747.069 189.517 733.826 186.798 729.64 191.344C729.407 192.158 729.03 193.582 729.164 194.452C730.39 202.315 747.471 199.327 753.593 205.642C755.808 207.56 757.466 209.958 757.551 213.086C757.883 225.54 748.767 229.69 738.3 230.426C730.589 230.371 722.897 228.621 716.318 224.481C717.967 221.666 718.925 219.498 720.241 216.503C726.532 218.72 739.457 225.316 745.44 218.186C747.461 215.386 747.188 212.049 743.802 210.652C735.276 207.135 721.13 208.53 718.632 196.933C716.651 187.714 724.491 181.227 732.808 180.013Z" fill="var(--fill-0, white)"/>
<path id="Vector_16" d="M366.591 180.524L377.349 180.421C380.912 186.449 390.092 211.367 392.256 218.606C396.051 206.673 402.691 192.305 407.017 180.453C410.581 180.577 414.75 180.465 418.361 180.46C417.09 183.647 416.387 186.017 414.852 189.264C412.826 193.15 410.313 199.828 408.578 203.996L398.089 228.816C393.988 228.857 390.467 228.831 386.356 228.64C384.135 222.181 366.254 183.233 366.591 180.524Z" fill="var(--fill-0, white)"/>
<path id="Vector_17" d="M691.203 167.153C692.588 166.963 692.896 166.881 694.282 167.198C696.218 169.396 695.364 177.142 695.28 180.574C699.451 180.297 705.042 180.44 709.337 180.447C709.307 183.818 709.312 186.679 709.525 190.055C704.714 190.127 700.061 190.227 695.25 190.023C695.449 195.753 695.275 202.081 695.171 207.826C694.987 217.81 697.539 222.637 708.23 219.116C709.525 221.938 712.445 226.12 709.506 228.077C680.249 236.856 684.366 209.247 684.778 190.097C681.819 190.066 678.661 190.188 675.686 190.252L676.103 180.401L684.525 180.488L684.51 168.502L691.203 167.153Z" fill="var(--fill-0, white)"/>
<path id="Vector_18" d="M530.99 167.125C532.375 166.981 533.83 166.66 535.017 167.328C536.904 169.731 535.94 176.854 535.886 180.603C540.027 180.309 545.3 180.445 549.545 180.444C549.506 183.92 549.506 186.688 549.759 190.172C545.792 189.852 540.359 190.217 535.866 189.985C535.9 191.028 535.831 192.509 535.945 193.483C537.112 203.324 530.225 225.524 548.602 219.029C549.387 220.993 551.184 224.829 550.985 226.832C550.951 227.195 549.972 227.821 549.58 228.129C540.136 231.035 538.959 230.643 530.165 226.464C525.438 220.168 525.284 216.4 525.294 208.602C525.304 202.443 525.344 196.317 525.563 190.151C521.928 189.996 519.48 189.919 515.86 190.172L516.198 180.283C518.725 180.528 522.782 180.419 525.433 180.422C525.185 177.921 525.433 171.252 525.468 168.437L530.99 167.125Z" fill="var(--fill-0, white)"/>
<path id="Vector_19" d="M572.734 50.0335L579.074 49.7082C578.677 52.428 578.727 60.1082 578.682 63.1779L593.29 63.2793C593.196 66.1621 593.221 69.2378 593.191 72.1395L578.776 72.093C578.906 79.6729 578.2 87.7135 578.911 95.1816C579.71 103.615 586.453 102.877 592.402 101.95C593.251 105.216 593.732 106.905 595.038 109.999C563.493 120.086 568.568 92.3512 568.652 71.9333L559.292 72.2749L559.272 63.1878L568.627 63.3796C568.558 59.3287 567.997 55.2926 569.069 51.5036C570.405 50.03 570.425 50.4275 572.734 50.0335Z" fill="var(--fill-0, white)"/>
<path id="Vector_20" d="M745.271 42.9811L755.972 42.983C755.833 50.772 754.795 96.9241 757.094 100.63C759.284 104.157 764.984 101.794 767.258 105.117C768.192 106.477 768.067 109.954 767.73 111.518C761.563 113.362 750.028 112.667 747.506 106.708C743.082 96.245 745.266 76.2636 744.805 64.783C744.566 58.9075 744.452 47.3494 745.271 42.9811Z" fill="var(--fill-0, white)"/>
<path id="Vector_21" d="M777.214 43.0102L787.15 43.0839C787.08 50.6469 785.998 96.0492 788.297 100.019C790.61 104.003 796.971 101.922 799.116 105.528C799.896 106.841 799.871 109.944 799.523 111.403C790.476 113.78 777.914 112.504 777.611 101.176C777.11 82.5409 776.489 61.5754 777.214 43.0102Z" fill="var(--fill-0, white)"/>
<path id="Vector_22" d="M501.728 179.986C504.936 179.771 508.273 179.937 511.495 180.036C510.835 183.189 509.762 187.007 508.963 190.186C504.673 189.75 503.168 189.827 498.878 190.353C492.031 195.592 491.549 199.337 491.549 207.618C491.554 214.707 491.569 221.801 491.793 228.899L482.284 228.793L481.589 228.667C480 226.264 480.918 186.13 481.187 180.304C484.126 180.551 487.155 179.972 489.901 180.813C491.351 182.163 490.636 183.695 490.77 186.631C491.659 187.184 491.966 186.446 492.845 185.614C495.676 182.939 497.557 180.787 501.54 180.022L501.728 179.986Z" fill="var(--fill-0, white)"/>
<path id="Vector_23" d="M546.785 62.3712C549.183 62.3455 552.043 61.9105 553.642 63.4394C554.148 65.5581 553.185 70.3283 552.271 72.3288C550.797 73.1597 549.848 71.9842 547.803 71.9679C530.3 71.8256 534.391 98.7447 534.609 111.243C531.298 111.097 527.534 111.138 524.182 111.095C523.507 109.505 524.063 68.9961 523.874 63.4127C526.913 63.2145 531.069 63.3307 534.192 63.3277L533.542 71.7826C537.301 65.7395 539.739 63.6016 546.785 62.3712Z" fill="var(--fill-0, white)"/>
</g>
</svg>
