<svg width="642" height="204" overflow="visible" style="display: block;" viewBox="0 0 642 204" fill="none" xmlns="http://www.w3.org/2000/svg">
<g id="&#208;&#187;&#208;&#190;&#208;&#179;&#208;&#190;" clip-path="url(#clip0_0_4)">
<path id="Vector" d="M352.58 149.306C367.54 146.073 382.292 155.589 385.48 170.537C388.673 185.485 379.093 200.178 364.112 203.316C349.195 206.442 334.555 196.93 331.378 182.049C328.201 167.167 337.684 152.524 352.58 149.306ZM362.582 192.985C376.906 186.954 379.548 168.394 364.572 160.843C361.844 159.469 357.111 159.853 354.014 160.145C334.636 165.301 341.493 197.672 362.582 192.985Z" fill="var(--fill-0, white)"/>
<path id="Vector_2" d="M115.543 32.864C120.496 23.5275 128.794 21.2871 138.796 22.7346C161.608 26.0365 153.789 58.6036 154.887 75.0415L143.229 75.0031C143.842 66.0686 144.255 48.557 142.336 39.755C142.02 38.3054 139.944 35.759 138.937 34.5037C115.993 26.1854 119.349 51.4243 119.417 65.0381C119.398 68.3977 119.41 71.7567 119.451 75.1163L107.766 75.0453C108.299 67.222 108.231 47.5735 107.469 40.3552C106.82 39.2862 105.181 36.8402 104.241 36.2187C78.1119 18.9244 82.8272 67.1509 83.3615 75.1339C79.7614 74.9652 75.5322 75.0933 71.8834 75.1136C72.231 58.3212 71.8925 40.14 71.9021 23.2643C75.4172 23.3673 79.127 23.3374 82.6608 23.3689C82.4817 26.6099 82.1671 29.5471 81.8008 32.7743C82.41 31.8132 83.0395 30.8654 83.6883 29.931C86.9799 25.2286 90.6907 23.3865 96.1543 22.4276C105.516 21.9662 111.094 24.6237 115.543 32.864Z" fill="var(--fill-0, white)"/>
<path id="Vector_3" d="M29.3604 0.486888C35.5974 -0.193352 52.207 2.06842 56.1537 7.21827C56.7078 10.1603 53.2104 14.1771 51.3309 16.9445C45.1468 12.3356 41.0936 11.4102 33.3173 11.3034C29.7711 11.0327 23.0907 11.6302 20.6726 14.6822C9.23139 29.2668 32.6786 30.7469 41.13 33.0428C50.0788 35.5235 60.7166 41.5181 60.4075 52.2198C59.8539 71.3643 46.1154 76.6556 29.5091 76.8441C20.2511 76.4992 10.5038 73.1706 3.16177 67.4793C4.59627 64.3931 6.96786 60.851 8.81634 57.9164C16.9805 63.3258 26.3438 66.696 36.1162 65.6089C42.5934 64.8886 49.5386 59.3437 47.9559 52.2433C45.8897 42.9672 33.3959 42.7397 24.9569 41.0498C8.40504 37.7351 -1.02513 25.023 9.49559 9.62207C13.9296 3.13203 21.5198 1.48269 29.3604 0.486888Z" fill="var(--fill-0, white)"/>
<path id="Vector_4" d="M136.263 149.453C137.664 149.355 139.066 149.287 140.47 149.25C165.641 148.609 169.176 161.121 168.091 183.046C167.802 188.877 167.952 196.206 168.101 202.111L157.505 202.205C157.419 199.482 157.662 195.877 157.773 193.087C148.458 205.137 138.978 205.254 125.787 199.859C115.982 190.393 115.791 178.259 128.941 171.548C137.572 167.144 147.736 169.475 156.49 172.557C155.255 163.278 152.562 159.353 142.134 159.466C136.74 159.523 130.693 160.054 125.763 162.412C124.911 159.384 123.874 156.274 122.918 153.266C127.772 151.315 131.035 149.887 136.263 149.453ZM147.975 192.637C153.679 188.967 153.966 188.338 156.874 182.11C150.097 178.795 145.544 177.348 137.921 178.27C121.837 185.063 136.133 197.762 147.975 192.637Z" fill="var(--fill-0, white)"/>
<path id="Vector_5" d="M185.886 22.4302L186.089 22.4244C213.527 21.8877 214.517 32.6573 214.281 55.9323C214.164 62.3455 214.142 68.7602 214.228 75.1739L204.237 75.01L204.948 66.2742C203.632 67.6662 201.782 69.6135 200.337 70.8293C192.545 77.3828 176.386 78.5815 169.305 69.9872C165.229 64.1833 164.384 58.4322 167.524 51.8989C172.289 41.9805 183.981 41.675 193.454 43.0345C195.588 43.3399 201.081 45.4463 202.611 44.9374L203.156 43.4525C202.718 39.4683 201.14 37.4954 198.674 34.5192C188.886 30.7773 182.906 31.7795 172.733 35.0547C171.551 33.699 170.647 29.2823 169.086 26.4396C176.039 23.9173 178.622 23.1393 185.886 22.4302ZM181.05 65.1599C186.442 67.0452 188.18 67.4761 193.908 65.8294C199.872 63.2409 200.755 60.953 203.573 55.2505C197.973 51.9555 192.416 50.1957 185.789 51.1237C180.751 52.0287 176.654 54.4207 177.659 60.2263C177.954 61.9354 179.933 63.8474 181.05 65.1599Z" fill="var(--fill-0, white)"/>
<path id="Vector_6" d="M424.075 22.4318C463.313 20.6266 449.85 49.681 452.471 75.128L442.255 74.9449C442.437 72.1812 442.523 70.825 442.266 68.057C440.351 67.7009 428.113 85.1426 408.206 70.5233C400.156 61.5163 404.237 47.0331 416.02 43.6917C424.492 41.2895 433.061 42.0584 440.897 45.9946C440.747 41.2575 440.586 36.79 435.826 34.1321C428.365 29.9641 418.154 33.1534 410.458 34.9997C410.024 32.3476 408.821 28.7131 408.019 26.0519C414.56 23.7934 417.261 23.1089 424.075 22.4318ZM432.392 65.8369C436.292 64.3542 438.484 62.1437 440.185 58.3756C440.667 57.3046 441.111 56.2174 441.512 55.1154C435.479 51.4819 430.333 50.2453 423.209 51.1984C420.577 51.8252 417.871 53.1019 416.368 55.4699C415.55 56.7332 415.309 58.2801 415.694 59.7318C417.454 66.4264 425.963 67.9257 431.831 66.0275C432.018 65.9667 432.205 65.9037 432.392 65.8369Z" fill="var(--fill-0, white)"/>
<path id="Vector_7" d="M555.255 22.3886C556.213 22.3117 557.175 22.2615 558.138 22.238C578.532 21.7938 583.485 35.7857 583.721 53.2573C570.183 52.9823 556.539 53.4938 542.873 53.0859C547.783 69.7977 561.315 69.1538 574.296 61.9749C574.874 61.8286 575.446 61.9007 576.056 61.9157C586.459 70.4144 572.152 74.5893 565.476 75.922C552.34 78.5431 536.942 72.7317 533.107 58.9603C528.095 40.9895 536.327 25.5127 555.255 22.3886ZM543.141 44.884C549.158 44.6502 554.827 44.6614 560.855 44.7025C564.712 44.7105 568.761 44.6534 572.601 44.7345C570.782 33.8939 565.418 32.3076 555.405 32.5201C547.831 34.3884 545.548 38.1019 543.141 44.884Z" fill="var(--fill-0, white)" fill-opacity="0.984314"/>
<path id="Vector_8" d="M4.18122 128.468C11.2248 128.999 53.0424 127.519 56.7464 129.204C61.1092 135.756 28.5645 172.937 24.8189 180.822C23.9476 182.656 17.9454 190.111 16.5333 191.573C29.1705 190.916 44.3879 191.296 57.217 191.305C57.1288 194.931 57.086 198.557 57.0881 202.184C39.0488 201.714 18.7343 202.149 0.523834 202.187C0.808915 197.084 1.47696 194.185 4.63692 189.948C17.0008 173.369 28.488 155.405 41.1043 139.103C28.8111 139.702 16.0118 138.88 4.06462 139.563L4.18122 128.468Z" fill="var(--fill-0, white)"/>
<path id="Vector_9" d="M332.02 1.43357L344.643 1.55317C349.387 13.9433 354.591 26.3339 359.336 38.748C360.603 42.0675 366.599 58.5454 368.086 60.5258C367.375 61.0229 389.919 4.99655 391.112 1.56812C395.599 1.401 399.648 1.527 404.12 1.65996C401.921 5.80867 400.926 8.27602 399.274 12.594C397.894 17.1133 394.048 25.8619 392.128 30.7565C386.244 45.6022 380.233 60.3971 374.092 75.1392L361.122 74.9785C355.287 59.0933 347.59 42.469 341.578 26.4668C339.385 20.6266 332.978 7.11523 332.02 1.43357Z" fill="var(--fill-0, white)"/>
<path id="Vector_10" d="M629.623 23.3684L641.983 23.3075C638.362 34.1326 629.302 55.2724 624.777 66.0419C623.514 69.9936 621.664 73.9934 620.209 77.9894C616.449 88.3366 611.582 101.729 598.012 100.662C595.627 100.475 591.129 99.5681 589.54 97.6913C589.048 94.4262 591.375 91.3886 593.059 88.4963C593.289 88.5988 593.519 88.6981 593.749 88.7948C603.976 93.0786 606.265 84.2894 609.426 76.827C601.221 59.7142 594.921 41.7236 586.898 24.5265C586.898 24.5265 587.026 23.5163 587.037 23.4244C591.107 23.339 595.177 23.3646 599.248 23.5018C604.409 35.8033 611.1 51.9443 614.909 64.4513C620.182 51.8728 624.055 36.6448 629.623 23.3684Z" fill="var(--fill-0, white)"/>
<path id="Vector_11" d="M293.366 149.401C295.003 149.314 296.645 149.264 298.292 149.252C304.127 149.248 309.412 150.752 313.621 154.91C318.97 160.199 319.558 167.847 319.521 174.924C319.467 184.053 319.44 193.146 319.387 202.257C315.386 202.113 311.99 202.145 308.016 202.245C308.091 191.83 309.118 173.962 306.277 164.553C300.768 160.002 294.179 157.631 287.525 161.75C277.587 168.905 280.593 190.305 280.476 202.239C276.828 202.097 272.656 202.181 268.965 202.168C269.222 187.278 268.297 164.127 269.345 149.919C271.923 150.161 276.839 149.935 279.599 149.883C279.529 152.357 279.251 155.978 279.887 158.255C282.284 158.057 284.353 151.001 293.366 149.401Z" fill="var(--fill-0, white)"/>
<path id="Vector_12" d="M454.364 149.441C464.65 149.014 468.945 149.104 478.198 153.965C477.091 157.221 476.074 159.829 474.737 163C469.726 159.707 455.461 156.77 450.952 161.68C450.701 162.56 450.294 164.097 450.439 165.037C451.76 173.531 470.159 170.303 476.754 177.124C479.139 179.196 480.926 181.787 481.017 185.166C481.375 198.617 471.555 203.1 460.28 203.895C451.974 203.835 443.689 201.945 436.602 197.473C438.377 194.433 439.41 192.091 440.827 188.856C447.604 191.25 461.526 198.376 467.971 190.674C470.148 187.649 469.854 184.045 466.206 182.537C457.023 178.738 441.785 180.244 439.094 167.718C436.96 157.76 445.406 150.753 454.364 149.441Z" fill="var(--fill-0, white)"/>
<path id="Vector_13" d="M59.8837 149.994L71.4715 149.882C75.3096 156.393 85.1987 183.309 87.5291 191.128C91.617 178.239 98.7697 162.719 103.43 149.917C107.269 150.051 111.759 149.93 115.649 149.924C114.28 153.366 113.522 155.927 111.869 159.434C109.687 163.631 106.98 170.844 105.111 175.346L93.8126 202.156C89.3952 202.2 85.6025 202.172 81.1738 201.966C78.7819 194.989 59.5211 152.92 59.8837 149.994Z" fill="var(--fill-0, white)"/>
<path id="Vector_14" d="M409.549 135.551C411.041 135.346 411.372 135.257 412.865 135.599C414.951 137.973 414.031 146.34 413.94 150.048C418.433 149.748 424.455 149.903 429.082 149.911C429.05 153.552 429.055 156.641 429.285 160.288C424.102 160.366 419.09 160.475 413.908 160.254C414.122 166.444 413.934 173.278 413.822 179.484C413.624 190.268 416.373 195.482 427.889 191.679C429.285 194.727 432.43 199.245 429.264 201.358C397.749 210.841 402.184 181.019 402.627 160.334C399.44 160.301 396.038 160.432 392.834 160.501L393.283 149.86L402.355 149.954L402.339 137.007L409.549 135.551Z" fill="var(--fill-0, white)"/>
<path id="Vector_15" d="M236.97 135.52C238.462 135.365 240.03 135.018 241.308 135.739C243.34 138.336 242.303 146.029 242.244 150.079C246.705 149.761 252.385 149.908 256.958 149.907C256.915 153.662 256.915 156.652 257.188 160.414C252.914 160.069 247.063 160.463 242.223 160.212C242.26 161.339 242.185 162.939 242.308 163.991C243.565 174.621 236.146 198.601 255.942 191.585C256.787 193.706 258.723 197.85 258.509 200.013C258.472 200.405 257.418 201.081 256.995 201.414C246.822 204.553 245.555 204.13 236.082 199.616C230.99 192.815 230.825 188.745 230.835 180.322C230.846 173.669 230.889 167.052 231.124 160.392C227.209 160.224 224.572 160.142 220.673 160.414L221.037 149.733C223.759 149.998 228.129 149.88 230.985 149.883C230.718 147.182 230.985 139.979 231.023 136.938L236.97 135.52Z" fill="var(--fill-0, white)"/>
<path id="Vector_16" d="M281.936 9.04382L288.766 8.69248C288.338 11.6302 288.392 19.926 288.343 23.2418L304.079 23.3513C303.977 26.4652 304.004 29.7874 303.972 32.9216L288.445 32.8714C288.584 41.0589 287.825 49.7439 288.589 57.8107C289.451 66.9197 296.714 66.1226 303.122 65.122C304.036 68.6492 304.555 70.4742 305.962 73.8156C271.982 84.7112 277.448 54.7534 277.539 32.699L267.457 33.0679L267.436 23.2525L277.512 23.4597C277.438 19.084 276.833 14.7244 277.988 10.6318C279.427 9.04008 279.449 9.46937 281.936 9.04382Z" fill="var(--fill-0, white)"/>
<path id="Vector_17" d="M467.79 1.42611L479.316 1.42824C479.166 9.84154 478.048 59.6929 480.525 63.6953C482.883 67.5055 489.024 64.9533 491.473 68.5424C492.479 70.0118 492.345 73.767 491.981 75.4564C485.338 77.4485 472.913 76.6973 470.196 70.2606C465.431 58.9593 467.784 37.3763 467.287 24.9755C467.03 18.6291 466.907 6.14454 467.79 1.42611Z" fill="var(--fill-0, white)"/>
<path id="Vector_18" d="M502.197 1.45759L512.9 1.53715C512.825 9.70643 511.659 58.7478 514.135 63.0353C516.628 67.3389 523.479 65.091 525.79 68.9861C526.63 70.4048 526.603 73.7558 526.229 75.3325C516.483 77.9002 502.951 76.5211 502.625 64.2858C502.085 44.1568 501.416 21.5108 502.197 1.45759Z" fill="var(--fill-0, white)"/>
<path id="Vector_19" d="M205.451 149.412C208.906 149.18 212.5 149.359 215.971 149.466C215.26 152.872 214.105 156.997 213.243 160.43C208.622 159.959 207.002 160.042 202.38 160.61C195.005 166.27 194.486 170.314 194.486 179.259C194.491 186.916 194.507 194.579 194.748 202.246L184.505 202.131L183.757 201.995C182.045 199.4 183.034 156.048 183.323 149.756C186.49 150.022 189.752 149.398 192.71 150.306C194.272 151.764 193.502 153.418 193.646 156.59C194.604 157.188 194.935 156.391 195.882 155.492C198.931 152.602 200.958 150.277 205.247 149.451L205.451 149.412Z" fill="var(--fill-0, white)"/>
<path id="Vector_20" d="M253.984 22.3704C256.567 22.3427 259.648 21.8728 261.371 23.5243C261.916 25.8128 260.878 30.9653 259.894 33.1261C258.306 34.0237 257.284 32.754 255.081 32.7364C236.227 32.5826 240.634 61.6594 240.869 75.159C237.302 75.0015 233.247 75.0458 229.637 74.9993C228.91 73.2822 229.509 29.5263 229.306 23.4955C232.579 23.2813 237.056 23.4068 240.42 23.4036L239.719 32.5361C243.768 26.0087 246.394 23.6994 253.984 22.3704Z" fill="var(--fill-0, white)"/>
</g>
<defs>
<clipPath id="clip0_0_4">
<rect width="642" height="204" fill="white"/>
</clipPath>
</defs>
</svg>
